# xmcd
#
# Track frame offsets:
#	150
#	15080
#	26123
#	37833
#	50218
#	62390
#	75190
#	90248
#	103958
#	115420
#	127880
#	141218
#
# Disc length: 2061
#
# Revision: 1
# Processed by: cddbd v1.5.1PL0 Copyright (c) Steve Scherf et al.
# Submitted via: OrangeCD 4.2
# Normalized: r0:DSETVAR1,TDELIM( - )
#
DISCID=8a080b0c
DTITLE=Various Artist - 24 Blues Classics - CD 2
DYEAR=1993
DGENRE=Blues
TTITLE0=B. B. King - How Blue Can You Get
TTITLE1=Howlin' Wolf - Little Red Rooster
TTITLE2=Muddy Waters - Diamonds At Your Feet
TTITLE3=Soony Boy Williamson - Trust My Baby
TTITLE4=John Lee Hooker - Frisco
TTITLE5=Little Walter - I Got To Find My Baby
TTITLE6=Muddy Waters - Iodine In My Coffee
TTITLE7=B. B. King - Three O'Clock Blues
TTITLE8=John Lee Hooker - Boom Boom
TTITLE9=Elmore James - Ther Sky Is Crying
TTITLE10=Muddy Waters - Mean Mistreater
TTITLE11=Howlin' Wolf - Highway 49
EXTD=
EXTT0=
EXTT1=
EXTT2=
EXTT3=
EXTT4=
EXTT5=
EXTT6=
EXTT7=
EXTT8=
EXTT9=
EXTT10=
EXTT11=
PLAYORDER=
